<svg height="1598" width="720" xmlns="http://www.w3.org/2000/svg">
<rect height="1598" fill="#555" width="720"></rect>
<text fill="#7f7" font-family="Courier New" font-size="12" xml:space="preserve">
<tspan x="10" y="26">20 megabytes installed</tspan>
<tspan x="10" y="42"></tspan>
<tspan x="10" y="58">node_modules</tspan>
<tspan x="10" y="74">└─┬ gulp-jsdoc3@1.0.1 </tspan>
<tspan x="10" y="90">  ├── bluebird@3.5.0 </tspan>
<tspan x="10" y="106">  ├─┬ debug@2.6.4 </tspan>
<tspan x="10" y="122">  │ └── ms@0.7.3 </tspan>
<tspan x="10" y="138">  ├─┬ gulp-util@3.0.8 </tspan>
<tspan x="10" y="154">  │ ├── array-differ@1.0.0 </tspan>
<tspan x="10" y="170">  │ ├── array-uniq@1.0.3 </tspan>
<tspan x="10" y="186">  │ ├── beeper@1.1.1 </tspan>
<tspan x="10" y="202">  │ ├─┬ chalk@1.1.3 </tspan>
<tspan x="10" y="218">  │ │ ├── ansi-styles@2.2.1 </tspan>
<tspan x="10" y="234">  │ │ ├─┬ has-ansi@2.0.0 </tspan>
<tspan x="10" y="250">  │ │ │ └── ansi-regex@2.1.1 </tspan>
<tspan x="10" y="266">  │ │ ├── strip-ansi@3.0.1 </tspan>
<tspan x="10" y="282">  │ │ └── supports-color@2.0.0 </tspan>
<tspan x="10" y="298">  │ ├── dateformat@2.0.0 </tspan>
<tspan x="10" y="314">  │ ├─┬ fancy-log@1.3.0 </tspan>
<tspan x="10" y="330">  │ │ └── time-stamp@1.0.1 </tspan>
<tspan x="10" y="346">  │ ├─┬ gulplog@1.0.0 </tspan>
<tspan x="10" y="362">  │ │ └── glogg@1.0.0 </tspan>
<tspan x="10" y="378">  │ ├─┬ has-gulplog@0.1.0 </tspan>
<tspan x="10" y="394">  │ │ └── sparkles@1.0.0 </tspan>
<tspan x="10" y="410">  │ ├── lodash._reescape@3.0.0 </tspan>
<tspan x="10" y="426">  │ ├── lodash._reevaluate@3.0.0 </tspan>
<tspan x="10" y="442">  │ ├── lodash._reinterpolate@3.0.0 </tspan>
<tspan x="10" y="458">  │ ├─┬ lodash.template@3.6.2 </tspan>
<tspan x="10" y="474">  │ │ ├── lodash._basecopy@3.0.1 </tspan>
<tspan x="10" y="490">  │ │ ├── lodash._basetostring@3.0.1 </tspan>
<tspan x="10" y="506">  │ │ ├── lodash._basevalues@3.0.0 </tspan>
<tspan x="10" y="522">  │ │ ├── lodash._isiterateecall@3.0.9 </tspan>
<tspan x="10" y="538">  │ │ ├─┬ lodash.escape@3.2.0 </tspan>
<tspan x="10" y="554">  │ │ │ └── lodash._root@3.0.1 </tspan>
<tspan x="10" y="570">  │ │ ├─┬ lodash.keys@3.1.2 </tspan>
<tspan x="10" y="586">  │ │ │ ├── lodash._getnative@3.9.1 </tspan>
<tspan x="10" y="602">  │ │ │ ├── lodash.isarguments@3.1.0 </tspan>
<tspan x="10" y="618">  │ │ │ └── lodash.isarray@3.0.4 </tspan>
<tspan x="10" y="634">  │ │ ├── lodash.restparam@3.6.1 </tspan>
<tspan x="10" y="650">  │ │ └── lodash.templatesettings@3.1.1 </tspan>
<tspan x="10" y="666">  │ ├── minimist@1.2.0 </tspan>
<tspan x="10" y="682">  │ ├─┬ multipipe@0.1.2 </tspan>
<tspan x="10" y="698">  │ │ └─┬ duplexer2@0.0.2 </tspan>
<tspan x="10" y="714">  │ │   └─┬ readable-stream@1.1.14 </tspan>
<tspan x="10" y="730">  │ │     ├── isarray@0.0.1 </tspan>
<tspan x="10" y="746">  │ │     └── string_decoder@0.10.31 </tspan>
<tspan x="10" y="762">  │ ├── object-assign@3.0.0 </tspan>
<tspan x="10" y="778">  │ ├── replace-ext@0.0.1 </tspan>
<tspan x="10" y="794">  │ ├─┬ through2@2.0.3 </tspan>
<tspan x="10" y="810">  │ │ ├─┬ readable-stream@2.2.9 </tspan>
<tspan x="10" y="826">  │ │ │ ├── buffer-shims@1.0.0 </tspan>
<tspan x="10" y="842">  │ │ │ ├── core-util-is@1.0.2 </tspan>
<tspan x="10" y="858">  │ │ │ ├── inherits@2.0.3 </tspan>
<tspan x="10" y="874">  │ │ │ ├── isarray@1.0.0 </tspan>
<tspan x="10" y="890">  │ │ │ ├── process-nextick-args@1.0.7 </tspan>
<tspan x="10" y="906">  │ │ │ ├── string_decoder@1.0.0 </tspan>
<tspan x="10" y="922">  │ │ │ └── util-deprecate@1.0.2 </tspan>
<tspan x="10" y="938">  │ │ └── xtend@4.0.1 </tspan>
<tspan x="10" y="954">  │ └─┬ vinyl@0.5.3 </tspan>
<tspan x="10" y="970">  │   ├── clone@1.0.2 </tspan>
<tspan x="10" y="986">  │   └── clone-stats@0.0.1 </tspan>
<tspan x="10" y="1002">  ├─┬ ink-docstrap@1.3.0 </tspan>
<tspan x="10" y="1018">  │ ├── moment@2.18.1 </tspan>
<tspan x="10" y="1034">  │ └─┬ sanitize-html@1.14.1 </tspan>
<tspan x="10" y="1050">  │   ├─┬ htmlparser2@3.9.2 </tspan>
<tspan x="10" y="1066">  │   │ ├── domelementtype@1.3.0 </tspan>
<tspan x="10" y="1082">  │   │ ├── domhandler@2.3.0 </tspan>
<tspan x="10" y="1098">  │   │ ├─┬ domutils@1.5.1 </tspan>
<tspan x="10" y="1114">  │   │ │ └─┬ dom-serializer@0.1.0 </tspan>
<tspan x="10" y="1130">  │   │ │   └── domelementtype@1.1.3 </tspan>
<tspan x="10" y="1146">  │   │ ├── entities@1.1.1 </tspan>
<tspan x="10" y="1162">  │   │ └─┬ readable-stream@2.2.9 </tspan>
<tspan x="10" y="1178">  │   │   ├── isarray@1.0.0 </tspan>
<tspan x="10" y="1194">  │   │   └── string_decoder@1.0.0 </tspan>
<tspan x="10" y="1210">  │   └── regexp-quote@0.0.0 </tspan>
<tspan x="10" y="1226">  ├─┬ jsdoc@3.4.3 </tspan>
<tspan x="10" y="1242">  │ ├── bluebird@3.4.7 </tspan>
<tspan x="10" y="1258">  │ ├─┬ catharsis@0.8.8 </tspan>
<tspan x="10" y="1274">  │ │ └─┬ underscore-contrib@0.3.0 </tspan>
<tspan x="10" y="1290">  │ │   └── underscore@1.6.0 </tspan>
<tspan x="10" y="1306">  │ ├── escape-string-regexp@1.0.5 </tspan>
<tspan x="10" y="1322">  │ ├─┬ espree@3.1.7 </tspan>
<tspan x="10" y="1338">  │ │ ├── acorn@3.3.0 </tspan>
<tspan x="10" y="1354">  │ │ └── acorn-jsx@3.0.1 </tspan>
<tspan x="10" y="1370">  │ ├── js2xmlparser@1.0.0 </tspan>
<tspan x="10" y="1386">  │ ├─┬ klaw@1.3.1 </tspan>
<tspan x="10" y="1402">  │ │ └── graceful-fs@4.1.11 </tspan>
<tspan x="10" y="1418">  │ ├── marked@0.3.6 </tspan>
<tspan x="10" y="1434">  │ ├─┬ mkdirp@0.5.1 </tspan>
<tspan x="10" y="1450">  │ │ └── minimist@0.0.8 </tspan>
<tspan x="10" y="1466">  │ ├─┬ requizzle@0.2.1 </tspan>
<tspan x="10" y="1482">  │ │ └── underscore@1.6.0 </tspan>
<tspan x="10" y="1498">  │ ├── strip-json-comments@2.0.1 </tspan>
<tspan x="10" y="1514">  │ ├── taffydb@2.6.2 </tspan>
<tspan x="10" y="1530">  │ └── underscore@1.8.3 </tspan>
<tspan x="10" y="1546">  ├── map-stream@0.0.6 </tspan>
<tspan x="10" y="1562">  └─┬ tmp@0.0.28 </tspan>
<tspan x="10" y="1578">    └── os-tmpdir@1.0.2</tspan>
</text>
</svg>
